<?xml version="1.0" standalone="no"?>
<!DOCTYPE svg PUBLIC "-//W3C//DTD SVG 20010904//EN"
 "http://www.w3.org/TR/2001/REC-SVG-20010904/DTD/svg10.dtd">
<svg version="1.0" xmlns="http://www.w3.org/2000/svg"
 width="260.000000pt" height="260.000000pt" viewBox="0 0 260.000000 260.000000"
 preserveAspectRatio="xMidYMid meet">
<metadata>
Created by potrace 1.11, written by Peter Selinger 2001-2013
</metadata>
<g transform="translate(0.000000,260.000000) scale(0.100000,-0.100000)"
fill="#000000" stroke="none">
<path d="M945 2358 c-24 -14 -55 -49 -127 -143 -73 -94 -116 -125 -250 -174
-114 -42 -155 -70 -172 -116 -4 -11 -10 -67 -12 -124 -6 -154 -15 -195 -56
-265 -17 -28 -45 -72 -64 -97 -40 -55 -64 -109 -64 -144 0 -32 30 -92 86 -171
79 -111 93 -158 99 -340 5 -154 23 -175 208 -240 106 -37 160 -78 242 -186 39
-50 81 -100 95 -109 40 -30 87 -29 190 2 149 45 208 47 337 11 59 -17 120 -33
135 -36 64 -11 105 19 200 150 25 32 60 72 79 88 35 30 167 96 192 96 7 0 41
14 75 30 78 39 90 68 96 235 3 66 8 129 11 140 18 52 48 108 89 168 53 74 85
142 81 166 -2 9 -4 24 -4 33 -1 9 -32 63 -70 120 -87 132 -102 174 -107 318
-8 191 -18 207 -147 255 -109 41 -189 81 -223 112 -17 15 -59 65 -92 110 -34
44 -73 91 -88 102 -29 23 -76 27 -134 11 -19 -5 -75 -20 -124 -33 -107 -29
-153 -27 -290 14 -106 31 -159 36 -191 17z m486 -311 c30 -14 79 -52 109 -83
115 -119 223 -180 288 -162 18 5 37 19 43 31 15 33 70 67 108 67 97 0 144
-127 70 -191 -60 -52 -120 -36 -186 49 -50 64 -171 13 -318 -134 -88 -89 -142
-115 -235 -117 -228 -3 -364 250 -239 442 78 118 233 161 360 98z m-713 -180
c20 -21 26 -36 26 -76 1 -66 -30 -101 -98 -108 -42 -5 -48 -3 -81 30 -27 27
-35 43 -35 72 0 42 24 89 54 104 35 18 105 6 134 -22z m165 -348 c22 -12 63
-43 90 -70 97 -96 210 -141 341 -138 134 3 233 45 332 141 73 70 135 97 211
92 135 -8 234 -118 229 -255 -4 -137 -111 -239 -248 -239 -71 1 -121 25 -193
94 -63 61 -170 120 -240 133 -65 12 -180 6 -237 -12 -75 -24 -135 -61 -198
-121 -69 -66 -128 -93 -198 -94 -162 0 -282 162 -236 318 45 148 211 220 347
151z m548 -457 c25 -12 76 -53 115 -91 111 -110 193 -161 256 -161 22 0 42 13
80 50 47 47 57 53 93 53 39 0 50 -5 81 -38 27 -29 32 -41 30 -75 -6 -77 -89
-129 -154 -96 -16 8 -41 30 -55 49 -14 19 -38 38 -52 41 -63 16 -156 -36 -275
-152 -44 -43 -97 -84 -127 -99 -137 -64 -312 3 -376 145 -30 67 -29 171 2 235
70 143 243 207 382 139z m-736 -162 c51 -27 66 -108 32 -161 -10 -15 -34 -31
-57 -38 -97 -29 -172 68 -124 160 25 50 95 68 149 39z"/>
</g>
</svg>
