<svg version="1.1"
   xmlns="http://www.w3.org/2000/svg" xmlns:xlink="http://www.w3.org/1999/xlink" xmlns:a="http://ns.adobe.com/AdobeSVGViewerExtensions/3.0/"
   x="0px" y="0px" width="294.5px" height="35px" viewBox="0 0 294.5 35" enable-background="new 0 0 294.5 35" xml:space="preserve"
  >
  <path d="M51.5,29.7V5.4h8.7c3.1,0,5.5,0.6,7.1,1.7c1.6,1.1,2.4,2.8,2.4,5c0,1.3-0.3,2.3-0.9,3.2
    c-0.6,0.9-1.4,1.5-2.6,2c1.3,0.3,2.2,1,2.9,1.9c0.7,0.9,1,2,1,3.3c0,2.4-0.8,4.2-2.3,5.4c-1.5,1.2-3.7,1.8-6.7,1.8H51.5z
     M57.3,15.5h3.1c1.3,0,2.2-0.2,2.7-0.7c0.5-0.5,0.8-1.1,0.8-2c0-1-0.3-1.8-0.9-2.2s-1.5-0.7-2.9-0.7h-2.9V15.5z M57.3,19.3v5.8
    h3.8c1.1,0,1.9-0.2,2.4-0.7c0.6-0.5,0.9-1.2,0.9-2c0-2-1-3-3-3.1H57.3z"/>
  <path d="M86.2,25.1h10.2v4.5h-16V5.4h5.9V25.1z"/>
  <path d="M119.8,25.1h-8l-1.4,4.5h-6.3L113,5.4h5.5l9,24.3h-6.3L119.8,25.1z M113.2,20.6h5.2l-2.6-8.4L113.2,20.6z
    "/>
  <path d="M155.4,21.4c-0.1,1.7-0.5,3.2-1.4,4.5c-0.8,1.3-2,2.3-3.5,3c-1.5,0.7-3.2,1.1-5.2,1.1
    c-3.2,0-5.7-1-7.5-3.1c-1.8-2.1-2.8-5-2.8-8.8v-1.2c0-2.4,0.4-4.5,1.2-6.2c0.8-1.8,2-3.2,3.6-4.1c1.6-1,3.4-1.5,5.4-1.5
    c2.9,0,5.3,0.8,7.1,2.3c1.8,1.6,2.8,3.7,3.1,6.4h-5.8c0-1.5-0.4-2.5-1.1-3.2c-0.7-0.6-1.8-1-3.2-1c-1.5,0-2.5,0.5-3.2,1.6
    c-0.7,1.1-1,2.8-1.1,5.2v1.7c0,2.6,0.3,4.4,1,5.6c0.7,1.1,1.8,1.7,3.4,1.7c1.3,0,2.4-0.3,3.1-1c0.7-0.6,1.1-1.6,1.1-3H155.4z"/>
  <path d="M173.3,20.6l-2.4,2.6v6.4H165V5.4h5.9v10.7l2-3.1l5.2-7.6h7.2l-8.2,10.7l8.2,13.5h-6.9L173.3,20.6z"/>
  <path d="M209,20h-9.4v9.7h-5.9V5.4h16.2v4.5h-10.4v5.6h9.4V20z"/>
  <path d="M225.1,25.1h10.2v4.5h-16V5.4h5.9V25.1z"/>
  <path d="M258.7,25.1h-8l-1.4,4.5H243l8.9-24.3h5.5l9,24.3h-6.3L258.7,25.1z M252.1,20.6h5.2l-2.6-8.4L252.1,20.6z"
    />
  <path d="M294.5,26.6c-0.9,1-2.2,1.8-4,2.4c-1.7,0.6-3.6,0.9-5.7,0.9c-3.2,0-5.7-1-7.6-2.9
    c-1.9-1.9-2.9-4.7-3.1-8.1l0-2.1c0-2.4,0.4-4.5,1.3-6.3c0.8-1.8,2.1-3.2,3.6-4.1c1.6-1,3.4-1.4,5.5-1.4c3,0,5.4,0.7,7,2.1
    c1.7,1.4,2.6,3.5,2.9,6.2h-5.6c-0.2-1.4-0.6-2.3-1.3-2.9c-0.7-0.6-1.6-0.9-2.8-0.9c-1.5,0-2.6,0.6-3.4,1.9
    c-0.8,1.2-1.2,3-1.2,5.3v1.5c0,2.4,0.4,4.2,1.2,5.5c0.8,1.2,2.1,1.8,3.9,1.8c1.5,0,2.7-0.3,3.4-1v-3.8h-4.1v-4h9.9V26.6z"/>
  <polygon points="23.3,23.3 11.7,35 35,35 35,11.7 23.3,11.7 23.3,0 0,0 0,23.3  "/>
</svg>
