<svg version="1.1"
   xmlns="http://www.w3.org/2000/svg" xmlns:xlink="http://www.w3.org/1999/xlink" xmlns:a="http://ns.adobe.com/AdobeSVGViewerExtensions/3.0/"
   x="0px" y="0px" width="266.4px" height="40px" viewBox="0 0 266.4 40" enable-background="new 0 0 266.4 40" xml:space="preserve"
  >
  <path fill="#FFFFFF" d="M14.1,7.3c-0.5,2-1.6,3.8-3.2,5l29.3,18.4c1.2-1.5,2.4-3.2,3.4-4.9L14.1,7.3z"/>
  <path fill="#FFFFFF" d="M45.8,21.7c2.6-5.7,3.9-11.7,3.1-16.5c0,0-7.7-5-21.8-5c-5.3,0-9.7,0.7-13.1,1.6L45.8,21.7z"/>
  <path fill="#FFFFFF" d="M5.8,14.5C8.4,25.5,17.1,37.7,27,40c3.6-0.8,7-3,10.1-5.9L5.8,14.5z"/>
  <path fill="#FFFFFF" d="M85.3,16c0,3.6-1.4,6-4.3,7l5.7,8.1h-6.2l-5-7.2H72v7.2h-5V8.5h8.6c3.5,0,6,0.6,7.5,1.8
    C84.6,11.5,85.3,13.4,85.3,16z M79.2,18.7c0.6-0.6,0.9-1.4,0.9-2.7c0-1.2-0.3-2.1-1-2.5c-0.6-0.5-1.8-0.7-3.4-0.7H72v6.7h3.7
    C77.4,19.6,78.6,19.3,79.2,18.7z"/>
  <path fill="#FFFFFF" d="M109.3,28c-2.3,2.2-5.1,3.3-8.4,3.3c-3.3,0-6.2-1.1-8.4-3.3c-2.3-2.2-3.4-5-3.4-8.3
    c0-3.3,1.1-6.1,3.4-8.3c2.3-2.2,5.1-3.3,8.4-3.3c3.3,0,6.2,1.1,8.4,3.3c2.3,2.2,3.4,5,3.4,8.3C112.7,23,111.6,25.8,109.3,28z
     M107.6,19.7c0-2-0.6-3.7-1.9-5.2c-1.3-1.4-2.9-2.1-4.8-2.1c-1.9,0-3.5,0.7-4.8,2.1c-1.3,1.4-1.9,3.1-1.9,5.2
    c0,2,0.6,3.7,1.9,5.1c1.3,1.4,2.9,2.1,4.8,2.1c1.9,0,3.5-0.7,4.8-2.1C106.9,23.4,107.6,21.7,107.6,19.7z"/>
  <path fill="#FFFFFF" d="M127.3,26.7c2.5,0,4.5-1,6.1-2.9l3.2,3.3c-2.6,2.9-5.6,4.3-9.1,4.3c-3.5,0-6.3-1.1-8.6-3.3
    c-2.3-2.2-3.4-5-3.4-8.3c0-3.4,1.1-6.1,3.4-8.4c2.3-2.2,5.1-3.4,8.4-3.4c3.7,0,6.8,1.4,9.3,4.2l-3.1,3.6c-1.6-2-3.6-3-5.9-3
    c-1.9,0-3.5,0.6-4.9,1.9c-1.3,1.2-2,2.9-2,5s0.6,3.8,1.9,5.1C124,26,125.5,26.7,127.3,26.7z"/>
  <path fill="#FFFFFF" d="M140.6,8.5h5v9.3l8.5-9.3h6.2l-9,10c0.8,1.1,2.2,3.1,4.3,6c2.1,2.9,3.7,5.1,4.7,6.6h-5.9l-6.6-8.9
    l-2.3,2.5v6.4h-5V8.5z"/>
  <path fill="#FFFFFF" d="M179.9,8.5V13h-11.3v4.7h10.1V22h-10.1v4.7h11.6v4.5h-16.7V8.5H179.9z"/>
  <path fill="#FFFFFF" d="M194.3,12.9v18.2h-5V12.9h-6.4V8.5h17.8v4.4H194.3z"/>
  <path fill="#FFFFFF" d="M220.7,8.5V13h-11.3v4.7h10.1V22h-10.1v4.7H221v4.5h-16.7V8.5H220.7z"/>
  <path fill="#FFFFFF" d="M241.8,8.5V13h-11.3v4.7h10.1V22h-10.1v4.7h11.6v4.5h-16.7V8.5H241.8z"/>
  <path fill="#FFFFFF" d="M265,16c0,3.6-1.4,6-4.3,7l5.7,8.1h-6.2l-5-7.2h-3.5v7.2h-5V8.5h8.6c3.5,0,6,0.6,7.5,1.8
    C264.3,11.5,265,13.4,265,16z M258.9,18.7c0.6-0.6,0.9-1.4,0.9-2.7c0-1.2-0.3-2.1-1-2.5c-0.6-0.5-1.8-0.7-3.4-0.7h-3.8v6.7h3.7
    C257.1,19.6,258.3,19.3,258.9,18.7z"/>
  <circle fill="#FFFFFF" cx="5.3" cy="5.3" r="5.3"/>
</svg>
