<svg version="1.1"
   xmlns="http://www.w3.org/2000/svg" xmlns:xlink="http://www.w3.org/1999/xlink" xmlns:a="http://ns.adobe.com/AdobeSVGViewerExtensions/3.0/"
   x="0px" y="0px" width="926.4px" height="755.2px" viewBox="0 0 926.4 755.2" enable-background="new 0 0 926.4 755.2"
   xml:space="preserve">
    <path fill="#0050A0" d="M265.9,137.9c-8.8,38-30.3,71.2-59.8,94.8L760,579.6c23.2-28.9,44.6-59.9,63.8-92.3L265.9,137.9z"/>
    <path fill="#0050A0" d="M864,410.6c49.2-107.3,72.8-220.8,58-311.3c0,0-145.4-94.8-411.7-94.5C410.6,4.7,328,17.9,263.5,34.5
      L864,410.6z"/>
    <path fill="#0050A0" d="M109,273.8c49.1,207.8,214.2,438.5,401.3,481.4c67.9-15.6,132.8-55.9,190.4-110.8L109,273.8z"/>
    <circle fill="#0050A0" cx="99.2" cy="99.2" r="99.2"/>
</svg>
